<svg width="50" height="50" viewBox="0 0 50 50" fill="none" xmlns="http://www.w3.org/2000/svg">
<path d="M0 0H50V50H0V0Z" fill="#F5DE19"/>
<path d="M27.0135 28.4909C27.2849 29.0448 27.7067 29.5103 28.2301 29.8339C28.7535 30.1574 29.3573 30.3258 29.9719 30.3196C31.2121 30.3196 32.0052 29.6967 32.0052 28.8338C32.0052 27.8052 31.1905 27.4372 29.8251 26.8371L29.0764 26.5148C26.9145 25.5902 25.4808 24.4324 25.4808 21.9843C25.4808 19.7293 27.1876 18.0115 29.8649 18.0115C30.7316 17.9487 31.5976 18.1435 32.3547 18.5718C33.1119 19 33.7268 19.6427 34.1227 20.4197L31.7822 21.9226C31.6297 21.5373 31.3643 21.2077 31.0211 20.9775C30.6779 20.7473 30.2731 20.6272 29.8604 20.6334C29.6803 20.6153 29.4985 20.6351 29.3265 20.6914C29.1544 20.7478 28.996 20.8396 28.8612 20.9609C28.7264 21.0821 28.6183 21.2303 28.5437 21.3959C28.4691 21.5615 28.4296 21.7409 28.4278 21.9226C28.4278 22.8244 28.9842 23.1901 30.2689 23.7513L31.0176 24.0736C33.5618 25.1696 35 26.2863 35 28.7972C35 31.5048 32.8825 32.9883 30.039 32.9883C28.9311 33.0592 27.8264 32.8066 26.8583 32.2608C25.8902 31.7151 25.1 30.8996 24.5831 29.9127L27.0135 28.4909ZM16.4373 28.7515C16.9072 29.5893 17.335 30.2979 18.3636 30.2979C19.3467 30.2979 19.968 29.9116 19.968 28.4086V18.183H22.9616V28.4486C22.9616 31.5619 21.1411 32.9792 18.4911 32.9792C17.5543 33.0306 16.624 32.7961 15.8225 32.3065C15.0209 31.817 14.3856 31.0952 14 30.2362L16.4373 28.7515Z" fill="black"/>
</svg>
