<svg width="50" height="50" viewBox="0 0 50 50" fill="none" xmlns="http://www.w3.org/2000/svg">
<path d="M47.6571 0H2.34286C1.04893 0 0 1.04893 0 2.34286V47.6571C0 48.9511 1.04893 50 2.34286 50H47.6571C48.9511 50 50 48.9511 50 47.6571V2.34286C50 1.04893 48.9511 0 47.6571 0Z" fill="#3178C6"/>
<path fill-rule="evenodd" clip-rule="evenodd" d="M25.9342 28.2252V31.2449C26.4748 31.5158 27.0508 31.7064 27.6448 31.8109C28.3311 31.9395 29.0278 32.0028 29.7258 31.9999C30.406 32.0032 31.0847 31.9336 31.7505 31.7922C32.3483 31.6696 32.9187 31.436 33.433 31.1032C33.9104 30.7904 34.3039 30.3622 34.5782 29.8571C35.0695 28.8111 35.1343 27.6107 34.7586 26.5165C34.6 26.1073 34.3638 25.7337 34.0633 25.417C33.7407 25.0803 33.3744 24.7898 32.9743 24.5538C32.5137 24.28 32.0352 24.0386 31.542 23.8314C31.1542 23.668 30.8051 23.5092 30.4948 23.355C30.2191 23.221 29.9554 23.0633 29.7064 22.8835C29.5114 22.7447 29.342 22.5721 29.206 22.3736C29.0885 22.1934 29.0274 21.9814 29.0305 21.7654C29.0279 21.5665 29.0825 21.3712 29.1876 21.2033C29.3017 21.0277 29.454 20.8809 29.6327 20.7742C29.8511 20.6436 30.0888 20.5496 30.3367 20.4956C30.641 20.427 30.952 20.394 31.2637 20.3972C31.5259 20.3981 31.7877 20.4172 32.0473 20.4543C32.3276 20.4928 32.605 20.551 32.8773 20.6285C33.1544 20.7065 33.4253 20.8052 33.688 20.9238C33.9429 21.0391 34.1867 21.1782 34.4163 21.3392V18.5212C33.9383 18.3376 33.4426 18.2057 32.9375 18.1275C32.3274 18.0374 31.7114 17.9949 31.095 18.0005C30.4212 17.9968 29.7493 18.0744 29.0935 18.2318C28.5008 18.3693 27.9372 18.6136 27.4295 18.9533C26.9579 19.2721 26.5685 19.7011 26.294 20.2043C26.003 20.763 25.8591 21.3885 25.876 22.0203C25.8545 22.8557 26.1256 23.6718 26.6411 24.3235C27.2736 25.046 28.071 25.6 28.9636 25.9367C29.3709 26.1073 29.7507 26.2743 30.103 26.4377C30.4209 26.5813 30.7264 26.7515 31.0165 26.9466C31.2504 27.1011 31.4558 27.2959 31.6235 27.5224C31.7709 27.7278 31.8491 27.976 31.8465 28.2301C31.8479 28.4205 31.7997 28.6079 31.7069 28.7734C31.6038 28.9513 31.4588 29.1004 31.2851 29.2075C31.0676 29.342 30.8297 29.4392 30.5811 29.4949C30.2571 29.5684 29.9258 29.6031 29.5939 29.5982C28.9425 29.597 28.2964 29.4805 27.6845 29.2538C27.0453 29.0196 26.4525 28.6713 25.9342 28.2252ZM20.9363 20.7073H24.8152V18.22H14V20.7073H17.8614V31.7843H20.9363V20.7073Z" fill="white"/>
</svg>
