<svg width="30" height="30" viewBox="0 0 30 30" fill="none" xmlns="http://www.w3.org/2000/svg">
<path fill-rule="evenodd" clip-rule="evenodd" d="M14.9541 0C6.69725 0 0 6.69725 0 14.9541C0 21.5596 4.31193 27.156 10.1835 29.1743C10.9174 29.2661 11.1927 28.8073 11.1927 28.4404C11.1927 28.0734 11.1927 27.156 11.1927 25.8716C7.06422 26.789 6.14679 23.8532 6.14679 23.8532C5.50459 22.1101 4.49541 21.6514 4.49541 21.6514C3.11927 20.7339 4.58716 20.7339 4.58716 20.7339C6.05505 20.8257 6.88073 22.2936 6.88073 22.2936C8.25688 24.5872 10.367 23.945 11.1927 23.578C11.2844 22.5688 11.7431 21.9266 12.1101 21.5596C8.80734 21.1927 5.3211 19.9083 5.3211 14.1284C5.3211 12.4771 5.87156 11.1927 6.88073 10.0917C6.69725 9.72477 6.23853 8.16514 7.06422 6.14679C7.06422 6.14679 8.34862 5.77982 11.1927 7.70642C12.3853 7.33945 13.6697 7.24771 14.9541 7.24771C16.2385 7.24771 17.5229 7.43119 18.7156 7.70642C21.5596 5.77982 22.844 6.14679 22.844 6.14679C23.6697 8.16514 23.1193 9.72477 23.0275 10.0917C23.945 11.1009 24.5872 12.4771 24.5872 14.1284C24.5872 19.9083 21.1009 21.1009 17.7982 21.4679C18.3486 21.9266 18.8073 22.844 18.8073 24.2202C18.8073 26.2385 18.8073 27.7982 18.8073 28.3486C18.8073 28.7156 19.0826 29.1743 19.8165 29.0826C25.7798 27.0642 30 21.4679 30 14.8624C29.9083 6.69725 23.211 0 14.9541 0Z" fill="#191717"/>
</svg>
