<svg width="31" height="31" viewBox="0 0 31 31" fill="none" xmlns="http://www.w3.org/2000/svg">
<path d="M25.8517 9.93913C25.7056 9.6516 25.46 9.42393 25.163 9.27396C24.8659 9.12395 24.5189 9.04796 24.1527 9.04796C23.5109 9.04796 22.8073 9.28166 22.1848 9.78176C21.6661 10.1977 21.2081 10.7997 20.8771 11.6004V5.69983C20.877 5.3138 20.5315 5 20.1072 5H9.30362C8.87856 5 8.5338 5.3138 8.5338 5.69983V11.4337L6.90352 10.8754C6.65534 10.7906 6.39934 10.7503 6.14745 10.7503C5.71236 10.7503 5.29178 10.87 4.93888 11.0886C4.5856 11.3065 4.29967 11.624 4.138 12.0141C4.04438 12.2394 4 12.4728 4 12.7012C4 13.0963 4.13244 13.4786 4.37215 13.7999C4.61186 14.1203 4.96142 14.3806 5.39057 14.5275L6.83659 15.0226C6.74782 15.0616 6.66202 15.1067 6.57989 15.1575C6.24619 15.3643 5.97358 15.6653 5.82113 16.0349C5.73199 16.2477 5.6902 16.4687 5.6902 16.6856C5.6902 17.0606 5.81445 17.4221 6.04272 17.7271C6.27062 18.0308 6.60131 18.2766 7.00819 18.4172L7.11546 18.4535C7.07587 18.4746 7.03667 18.4972 6.99892 18.5204C6.66306 18.7265 6.39191 19.0272 6.23946 19.3981C6.15032 19.611 6.10852 19.8316 6.10852 20.0488C6.10852 20.4242 6.23315 20.785 6.4618 21.0887C6.68744 21.394 7.01855 21.6402 7.42473 21.7788L7.53166 21.8158C7.49025 21.8369 7.45062 21.8598 7.41146 21.8843C7.07705 22.0898 6.80477 22.3908 6.652 22.7601C6.56281 22.9743 6.52143 23.1953 6.52143 23.4125C6.52143 23.7858 6.64611 24.149 6.87396 24.4523C7.10186 24.7564 7.43292 25.0038 7.83948 25.1424L9.22817 25.6179C9.46232 25.6979 9.7057 25.737 9.94433 25.737C10.2777 25.737 10.6006 25.661 10.8891 25.5238C11.329 25.7968 11.8365 26.0551 12.4224 26.2724C13.3816 26.6281 14.5425 26.8753 15.9263 26.9046C16.0139 26.9067 16.1002 26.9073 16.186 26.9073C17.5336 26.908 18.6593 26.6739 19.5941 26.2488C20.2951 25.9301 20.8859 25.505 21.3801 25.0029C22.1229 24.2499 22.6504 23.3291 23.0488 22.322C23.4458 21.3174 23.7151 20.2245 23.9329 19.1134C23.9385 19.0898 23.9666 18.9755 24.0121 18.7889C24.1915 18.0547 24.6413 16.2142 25.0601 14.5126C25.2694 13.6621 25.4711 12.8462 25.6275 12.2214C25.7052 11.9093 25.7718 11.6447 25.8225 11.448C25.8476 11.3497 25.8687 11.2684 25.8853 11.2065C25.9009 11.1459 25.9134 11.1022 25.9168 11.0918C25.9727 10.9139 26 10.74 26 10.5722C26.0005 10.3454 25.9491 10.1302 25.8517 9.93913ZM5.66134 13.8725C5.38427 13.7776 5.16381 13.6121 5.00915 13.4064C4.85486 13.1999 4.76977 12.9537 4.76977 12.7012C4.76977 12.5549 4.79791 12.4069 4.85858 12.2603C4.96326 12.0088 5.14456 11.8077 5.37165 11.6671C5.59804 11.5272 5.86957 11.4495 6.1474 11.4495C6.30756 11.4495 6.47103 11.4754 6.63162 11.5302L8.53375 12.1809V14.8558L5.66134 13.8725ZM6.68014 17.3336C6.53847 17.1432 6.46006 16.9179 6.46006 16.6855C6.46006 16.5513 6.48632 16.4155 6.54139 16.281C6.63684 16.0503 6.80477 15.8653 7.01266 15.7362C7.2206 15.6078 7.46991 15.5364 7.72407 15.5364C7.87167 15.5364 8.02111 15.5606 8.16871 15.6104H8.17017L8.5338 15.7355L9.55918 16.0866C9.74858 16.1509 9.90842 16.2517 10.0379 16.3778C10.0808 16.4195 10.1211 16.4659 10.1581 16.515C10.2994 16.7037 10.3768 16.9307 10.3768 17.1614C10.3768 17.2959 10.3505 17.4317 10.295 17.5676C10.2351 17.7132 10.147 17.8387 10.0379 17.9449C9.97318 18.0085 9.90253 18.0626 9.82374 18.1117C9.61585 18.2406 9.36838 18.3109 9.11276 18.3109C8.96478 18.3109 8.81535 18.2869 8.66775 18.2362L8.53385 18.1898L7.27906 17.762C7.0249 17.6739 6.82143 17.5226 6.68014 17.3336ZM7.09701 20.6958C6.95604 20.5065 6.87876 20.2799 6.87876 20.0488C6.87876 19.9143 6.90465 19.7785 6.96051 19.6446C7.05559 19.4122 7.22169 19.2289 7.43146 19.0984C7.63902 18.97 7.88866 18.8993 8.14282 18.8993C8.2723 18.8993 8.40324 18.9168 8.53385 18.9572C8.55234 18.9612 8.56933 18.9686 8.58783 18.974L9.97657 19.4495C9.99803 19.4566 10.018 19.4636 10.038 19.4724C10.2644 19.5618 10.446 19.703 10.5751 19.8766C10.7172 20.0669 10.7952 20.2926 10.7952 20.5249C10.7952 20.6595 10.7694 20.7947 10.7142 20.9292C10.7142 20.9305 10.7124 20.9319 10.7124 20.9332C10.6169 21.1632 10.449 21.3465 10.2429 21.474C10.035 21.6028 9.78534 21.6737 9.53118 21.6737C9.38358 21.6737 9.23452 21.6502 9.0865 21.6001L8.53385 21.4107L7.69781 21.1235C7.44214 21.0368 7.24018 20.8855 7.09701 20.6958ZM11.1432 24.2451C11.1384 24.2606 11.1325 24.2774 11.1266 24.2928C11.0308 24.5236 10.8643 24.7081 10.6557 24.8369C10.4474 24.9658 10.1999 25.0377 9.94433 25.0377C9.79635 25.0377 9.64687 25.0138 9.49932 24.963L8.11025 24.4872C7.85463 24.4005 7.65305 24.2478 7.51133 24.0588C7.36966 23.8701 7.29125 23.6438 7.29125 23.4124C7.29125 23.2779 7.31714 23.1407 7.373 23.0079C7.46845 22.7758 7.63601 22.5905 7.84395 22.4621C8.04553 22.337 8.2875 22.2674 8.53385 22.2633H8.55531C8.70291 22.2633 8.85234 22.2858 9.00032 22.337L9.06066 22.3572L10.3887 22.8121C10.6443 22.8999 10.8463 23.0516 10.9894 23.2406C11.1311 23.4306 11.2084 23.6559 11.2084 23.8886C11.2083 24.006 11.1884 24.1261 11.1432 24.2451ZM10.2491 18.7948L10.1385 18.7568C10.1785 18.7359 10.2173 18.7134 10.2565 18.6902C10.5921 18.4844 10.8628 18.1831 11.0156 17.8138C11.1048 17.5996 11.1465 17.378 11.1465 17.1614C11.1465 16.7868 11.0219 16.4256 10.7936 16.1216C10.6075 15.8714 10.3505 15.6595 10.0379 15.5156V7.0995H19.4032V20.8633H11.5276C11.5505 20.7503 11.565 20.6373 11.565 20.525C11.565 20.1497 11.4407 19.7885 11.2128 19.4832C10.9849 19.1798 10.6538 18.933 10.2491 18.7948ZM15.2446 22.2999C15.2446 22.5704 15.0031 22.7903 14.7056 22.7903C14.4078 22.7903 14.1666 22.5704 14.1666 22.2999C14.1666 22.0299 14.4078 21.8103 14.7056 21.8103C15.003 21.8104 15.2446 22.0299 15.2446 22.2999ZM25.1766 10.9C25.1644 10.9376 25.1504 10.9904 25.1289 11.0711C25.0509 11.3681 24.8903 12.0074 24.6931 12.803C24.102 15.1881 23.1805 18.9667 23.1805 18.9667L23.1787 18.974L23.1771 18.9814C22.987 19.954 22.758 20.8993 22.4454 21.7642C22.2113 22.4136 21.9301 23.0169 21.5853 23.554C21.0675 24.3604 20.4127 25.0158 19.5471 25.4766C18.6803 25.9363 17.5939 26.2069 16.1859 26.2076C16.1068 26.2076 16.0261 26.2063 15.944 26.2049C14.6507 26.177 13.5865 25.9486 12.7134 25.6248C12.2647 25.4577 11.8671 25.2653 11.5145 25.0615C11.6525 24.9085 11.7668 24.734 11.8467 24.5389C11.887 24.4427 11.9177 24.3432 11.9377 24.245C11.9536 24.1764 11.9636 24.1075 11.9695 24.0392L20.1071 24.1051C20.5314 24.1051 20.8769 23.7917 20.8769 23.4056V14.0678C21.0167 13.6209 21.1968 13.0445 21.4303 12.2993C21.7303 11.3429 22.1986 10.7042 22.6943 10.3057C23.1903 9.90756 23.7171 9.74749 24.1525 9.74749C24.4847 9.74749 24.7596 9.8403 24.9419 9.98222C25.0329 10.0535 25.1032 10.1359 25.1524 10.2328C25.2013 10.3293 25.2298 10.4403 25.2301 10.5721C25.2303 10.6699 25.2144 10.7789 25.1766 10.9Z" fill="black"/>
<path d="M15.7326 17.6316C17.3111 17.6316 18.5907 16.352 18.5907 14.7731C18.5907 13.1942 17.3111 11.9146 15.7326 11.9146C14.1534 11.9146 12.8741 13.1942 12.8738 14.7731C12.8741 16.352 14.1533 17.6316 15.7326 17.6316ZM17.4063 16.4464C17.1592 16.6933 16.8592 16.8849 16.5242 17.0037C16.685 16.8097 16.8181 16.5611 16.9227 16.2736H17.563C17.5136 16.3335 17.4612 16.3916 17.4063 16.4464ZM17.7439 16.02H17.0048C17.0996 15.6824 17.1564 15.3031 17.1669 14.8998H18.0957C18.0745 15.3097 17.9477 15.6918 17.7439 16.02ZM18.0957 14.6466H17.1658C17.1561 14.2433 17.1006 13.8637 17.0054 13.5264H17.7439C17.9477 13.8546 18.0745 14.2363 18.0957 14.6466ZM17.4063 13.1C17.4612 13.1548 17.5136 13.2127 17.563 13.2725H16.9227C16.8777 13.1481 16.8272 13.0304 16.7711 12.9217C16.6984 12.7801 16.6154 12.6524 16.5249 12.5428C16.8595 12.6618 17.1595 12.8535 17.4063 13.1ZM15.8594 12.4099C15.899 12.4123 15.9381 12.415 15.9774 12.419C16.0389 12.4472 16.1012 12.4849 16.162 12.5346C16.3483 12.6863 16.5212 12.9432 16.6523 13.2725H15.8594L15.8594 12.4099ZM15.8594 13.5264H16.7401C16.8413 13.8556 16.9025 14.2377 16.9136 14.6466H15.8594V13.5264ZM15.8594 14.8998H16.9126C16.9012 15.3091 16.8396 15.6908 16.7398 16.02H15.8594V14.8998ZM15.8594 16.2736H16.6506C16.6184 16.356 16.5837 16.436 16.5461 16.508C16.4338 16.7255 16.3012 16.8977 16.162 17.0114C16.1012 17.0615 16.039 17.0995 15.9774 17.1278C15.9381 17.1312 15.899 17.1345 15.8594 17.1365V16.2736ZM14.0592 16.4464C14.0041 16.3916 13.9509 16.3334 13.9025 16.2736H14.5418C14.5875 16.3983 14.6373 16.5157 14.6934 16.6243C14.7667 16.767 14.8488 16.8937 14.9399 17.0037C14.6053 16.885 14.3054 16.6933 14.0592 16.4464ZM15.6058 17.1365C15.5661 17.1345 15.5268 17.1311 15.4871 17.1278C15.4255 17.0995 15.3633 17.0615 15.3021 17.0114C15.1161 16.8594 14.944 16.6025 14.8121 16.2736H15.6058V17.1365ZM15.6058 16.02H14.7244C14.6238 15.6908 14.562 15.3084 14.5515 14.8998H15.6058V16.02ZM15.6058 14.6466H14.5519C14.5623 14.2377 14.6249 13.8556 14.7254 13.5264H15.6058L15.6058 14.6466ZM15.3021 12.5347C15.3633 12.4849 15.4255 12.4473 15.4871 12.419C15.5268 12.415 15.5661 12.4123 15.6058 12.4099V13.2725H14.8138C14.8461 13.1905 14.8811 13.1111 14.9187 13.0385C15.0311 12.8205 15.1633 12.6484 15.3021 12.5347ZM14.0592 13.1C14.3054 12.8535 14.606 12.6611 14.9403 12.5428C14.7806 12.7365 14.6464 12.9857 14.5418 13.2725H13.9025C13.9509 13.2126 14.0041 13.1548 14.0592 13.1ZM13.7205 13.5264H14.4597C14.3649 13.8637 14.3081 14.2433 14.2976 14.6466H13.3688C13.3903 14.2363 13.5167 13.8546 13.7205 13.5264ZM14.2986 14.8998C14.309 15.3031 14.3639 15.6824 14.4597 16.02H13.7205C13.5167 15.6918 13.3903 15.3097 13.3688 14.8998H14.2986Z" fill="black"/>
<path d="M15.5 0C24.0605 0 31 6.93958 31 15.5C31 24.0604 24.0605 31 15.5 31C6.9397 31 0 24.0604 0 15.5C0 6.93958 6.9397 0 15.5 0ZM24.9699 8.77009L8.77022 24.9699C10.6711 26.3246 12.9932 27.125 15.5 27.125C21.9102 27.125 27.125 21.91 27.125 15.5C27.125 12.9931 26.3248 10.671 24.9699 8.77009ZM6.03023 22.2298L22.2299 6.03011C20.3291 4.67537 18.007 3.875 15.5 3.875C9.09008 3.875 3.875 9.08996 3.875 15.5C3.875 18.0069 4.67537 20.329 6.03023 22.2298Z" fill="#FE0000"/>
</svg>
