<svg width="28" height="30" viewBox="0 0 28 30" fill="none" xmlns="http://www.w3.org/2000/svg">
<path d="M27.2037 6.76371C27.0218 6.36996 26.716 6.05818 26.3462 5.85281C25.9764 5.64738 25.5444 5.54332 25.0886 5.54332C24.2895 5.54332 23.4136 5.86336 22.6386 6.5482C21.9929 7.11785 21.4228 7.94221 21.0106 9.03867V0.958359C21.0105 0.429727 20.5804 0 20.0522 0H6.60258C6.07342 0 5.64422 0.429727 5.64422 0.958359V8.81033L3.61465 8.04586C3.30568 7.92978 2.98699 7.87453 2.6734 7.87453C2.13176 7.87453 1.60816 8.03848 1.16883 8.33783C0.729024 8.63625 0.373066 9.07096 0.171797 9.60521C0.055254 9.91377 0 10.2333 0 10.5461C0 11.0872 0.164883 11.6108 0.463301 12.0506C0.761719 12.4895 1.19689 12.8459 1.73115 13.0471L3.53133 13.7251C3.42082 13.7785 3.314 13.8402 3.21176 13.9097C2.79633 14.193 2.45695 14.6051 2.26717 15.1113C2.15619 15.4028 2.10416 15.7054 2.10416 16.0024C2.10416 16.5159 2.25885 17.0109 2.54303 17.4286C2.82674 17.8445 3.23842 18.1812 3.74496 18.3737L3.8785 18.4233C3.82922 18.4523 3.78041 18.4832 3.73342 18.515C3.31529 18.7973 2.97773 19.209 2.78795 19.717C2.67697 20.0085 2.62494 20.3106 2.62494 20.6081C2.62494 21.1221 2.7801 21.6162 3.06475 22.0321C3.34564 22.4502 3.75785 22.7873 4.26352 22.9771L4.39664 23.0277C4.34508 23.0567 4.29574 23.088 4.24699 23.1216C3.83068 23.403 3.49172 23.8152 3.30152 24.3209C3.19049 24.6142 3.13898 24.9168 3.13898 25.2143C3.13898 25.7255 3.2942 26.2229 3.57785 26.6382C3.86156 27.0546 4.27371 27.3935 4.77984 27.5833L6.50865 28.2345C6.80016 28.344 7.10314 28.3975 7.40021 28.3975C7.81518 28.3975 8.21719 28.2934 8.57637 28.1055C9.12398 28.4794 9.7558 28.8331 10.4852 29.1306C11.6794 29.6179 13.1245 29.9563 14.8473 29.9964C14.9564 29.9992 15.0637 30.0002 15.1706 30.0002C16.8482 30.0011 18.2496 29.6805 19.4134 29.0984C20.2861 28.6619 21.0216 28.0798 21.6368 27.3922C22.5615 26.3611 23.2182 25.1002 23.7142 23.7209C24.2084 22.3453 24.5437 20.8487 24.8149 19.327C24.8218 19.2948 24.8568 19.1382 24.9135 18.8827C25.1368 17.8773 25.6968 15.3568 26.2181 13.0266C26.4787 11.862 26.7298 10.7447 26.9245 9.8891C27.0213 9.46172 27.1042 9.09932 27.1672 8.8299C27.1985 8.69537 27.2248 8.58398 27.2455 8.4992C27.2648 8.41629 27.2805 8.35646 27.2846 8.34217C27.3543 8.09854 27.3882 7.86047 27.3882 7.63066C27.3888 7.32006 27.3248 7.02533 27.2037 6.76371ZM2.06824 12.1501C1.7233 12.0202 1.44885 11.7936 1.25631 11.5118C1.06424 11.229 0.958301 10.8919 0.958301 10.5461C0.958301 10.3457 0.99334 10.1431 1.06887 9.94231C1.19918 9.59789 1.42488 9.3225 1.7076 9.12996C1.98943 8.93836 2.32746 8.83201 2.67334 8.83201C2.87273 8.83201 3.07623 8.86746 3.27615 8.94252L5.64416 9.83367V13.4967L2.06824 12.1501ZM3.33656 16.8898C3.1602 16.6291 3.06258 16.3205 3.06258 16.0023C3.06258 15.8186 3.09527 15.6326 3.16383 15.4483C3.28266 15.1324 3.49172 14.8791 3.75053 14.7023C4.00939 14.5264 4.31977 14.4287 4.63617 14.4287C4.81992 14.4287 5.00596 14.4619 5.18971 14.5301H5.19152L5.64422 14.7013L6.92074 15.1822C7.15652 15.2701 7.35551 15.4083 7.5167 15.581C7.57008 15.638 7.62029 15.7015 7.66635 15.7688C7.8423 16.0272 7.93857 16.338 7.93857 16.6539C7.93857 16.8381 7.90588 17.0242 7.8368 17.2102C7.76221 17.4096 7.65258 17.5814 7.51676 17.727C7.43613 17.814 7.34818 17.8881 7.2501 17.9554C6.99129 18.1318 6.6832 18.228 6.36498 18.228C6.18076 18.228 5.99473 18.1953 5.81098 18.1258L5.64428 18.0622L4.08217 17.4764C3.76576 17.3558 3.51246 17.1486 3.33656 16.8898ZM3.85553 21.4941C3.68004 21.2348 3.58383 20.9244 3.58383 20.608C3.58383 20.4238 3.61605 20.2378 3.68561 20.0545C3.80396 19.7363 4.01074 19.4853 4.27189 19.3066C4.53029 19.1306 4.84107 19.0339 5.15748 19.0339C5.31867 19.0339 5.48168 19.0579 5.64428 19.1131C5.6673 19.1186 5.68846 19.1287 5.71148 19.1361L7.44035 19.7873C7.46707 19.797 7.49191 19.8067 7.51682 19.8186C7.79865 19.9412 8.02477 20.1345 8.18549 20.3722C8.36232 20.6329 8.45953 20.9418 8.45953 21.26C8.45953 21.4443 8.42731 21.6294 8.35863 21.8136C8.35863 21.8154 8.35635 21.8173 8.35635 21.8191C8.23752 22.1341 8.02846 22.3852 7.77193 22.5596C7.51313 22.736 7.20228 22.8332 6.88588 22.8332C6.70213 22.8332 6.51656 22.8009 6.33229 22.7323L5.64428 22.473L4.60348 22.0798C4.28519 21.9611 4.03377 21.7538 3.85553 21.4941ZM8.89277 26.3545C8.8868 26.3757 8.87941 26.3987 8.87209 26.4199C8.75279 26.7358 8.54555 26.9886 8.2858 27.1649C8.02652 27.3414 7.71844 27.4399 7.40021 27.4399C7.216 27.4399 7.0299 27.4072 6.84621 27.3376L5.11693 26.686C4.79871 26.5672 4.54775 26.3581 4.37133 26.0993C4.19496 25.8409 4.09734 25.531 4.09734 25.2142C4.09734 25.03 4.12957 24.8421 4.19912 24.6602C4.31795 24.3424 4.52654 24.0887 4.78541 23.9128C5.03637 23.7415 5.3376 23.6462 5.64428 23.6406H5.671C5.85475 23.6406 6.04078 23.6714 6.225 23.7415L6.30012 23.7691L7.9534 24.3922C8.27162 24.5124 8.52311 24.7201 8.70129 24.9789C8.87766 25.2391 8.97393 25.5476 8.97393 25.8663C8.97381 26.027 8.94897 26.1915 8.89277 26.3545ZM7.77967 18.8907L7.64197 18.8387C7.69172 18.8101 7.74006 18.7793 7.78887 18.7475C8.20658 18.4657 8.54367 18.0531 8.73387 17.5474C8.8449 17.254 8.89688 16.9506 8.89688 16.654C8.89688 16.1409 8.74166 15.6463 8.45754 15.23C8.22586 14.8874 7.90582 14.5973 7.5167 14.4002V2.87508H19.1758V21.7235H9.37125C9.39979 21.5687 9.41777 21.414 9.41777 21.2601C9.41777 20.7462 9.26309 20.2516 8.97938 19.8335C8.69566 19.418 8.28346 19.08 7.77967 18.8907ZM13.9986 23.6907C13.9986 24.0611 13.6979 24.3622 13.3276 24.3622C12.9569 24.3622 12.6567 24.0611 12.6567 23.6907C12.6567 23.321 12.9569 23.0203 13.3276 23.0203C13.6979 23.0203 13.9986 23.321 13.9986 23.6907ZM26.3632 8.07949C26.348 8.13105 26.3305 8.2033 26.3038 8.31387C26.2066 8.72051 26.0067 9.59602 25.7613 10.6856C25.0254 13.9516 23.8782 19.1261 23.8782 19.1261L23.8759 19.1362L23.874 19.1463C23.6373 20.4782 23.3522 21.7727 22.9631 22.9571C22.6716 23.8464 22.3216 24.6726 21.8923 25.408C21.2476 26.5124 20.4325 27.4099 19.3549 28.0409C18.2759 28.6704 16.9233 29.0411 15.1705 29.042C15.072 29.042 14.9716 29.0401 14.8693 29.0383C13.2593 29 11.9344 28.6873 10.8475 28.2439C10.2889 28.015 9.79389 27.7516 9.35496 27.4725C9.52676 27.263 9.66902 27.024 9.76852 26.7568C9.81867 26.6251 9.85693 26.4888 9.88178 26.3544C9.90158 26.2604 9.914 26.166 9.92139 26.0725L20.052 26.1628C20.5802 26.1628 21.0104 25.7336 21.0104 25.2049V12.4176C21.1845 11.8055 21.4087 11.0162 21.6993 9.99568C22.0728 8.686 22.6558 7.81143 23.2729 7.26574C23.8904 6.72047 24.5463 6.50127 25.0883 6.50127C25.5018 6.50127 25.844 6.62836 26.0711 6.82271C26.1843 6.92033 26.2718 7.03318 26.3331 7.16584C26.3939 7.29797 26.4294 7.44996 26.4298 7.63049C26.43 7.76449 26.4102 7.91367 26.3632 8.07949Z" fill="black"/>
<path d="M13.3277 17.2977C15.4894 17.2977 17.2417 15.5454 17.2417 13.3832C17.2417 11.2211 15.4894 9.46875 13.3277 9.46875C11.1651 9.46875 9.41325 11.2211 9.41284 13.3832C9.41325 15.5454 11.1651 17.2977 13.3277 17.2977ZM15.6198 15.6748C15.2813 16.0128 14.8705 16.2752 14.4118 16.4379C14.632 16.1722 14.8143 15.8318 14.9575 15.438H15.8344C15.7666 15.5201 15.6949 15.5997 15.6198 15.6748ZM16.0821 15.0908H15.0699C15.1997 14.6285 15.2776 14.109 15.2918 13.5568H16.5638C16.5348 14.1182 16.3612 14.6413 16.0821 15.0908ZM16.5638 13.21H15.2904C15.2771 12.6578 15.2011 12.1379 15.0708 11.676H16.0821C16.3612 12.1255 16.5348 12.6482 16.5638 13.21ZM15.6198 11.0921C15.6949 11.1672 15.7667 11.2464 15.8344 11.3283H14.9575C14.8958 11.1579 14.8267 10.9968 14.7499 10.848C14.6504 10.6541 14.5366 10.4791 14.4127 10.329C14.871 10.492 15.2817 10.7545 15.6198 11.0921ZM13.5013 10.1471C13.5557 10.1503 13.6091 10.154 13.663 10.1595C13.7473 10.1982 13.8325 10.2497 13.9158 10.3179C14.1709 10.5256 14.4077 10.8774 14.5873 11.3283H13.5014L13.5013 10.1471ZM13.5013 11.676H14.7074C14.8461 12.1269 14.9299 12.65 14.9451 13.21H13.5013V11.676ZM13.5013 13.5568H14.9437C14.928 14.1173 14.8437 14.64 14.707 15.0908H13.5013V13.5568ZM13.5013 15.438H14.5849C14.5407 15.5509 14.4933 15.6605 14.4417 15.759C14.288 16.057 14.1064 16.2928 13.9158 16.4484C13.8325 16.517 13.7473 16.5691 13.663 16.6078C13.6091 16.6124 13.5557 16.617 13.5013 16.6198V15.438ZM11.0362 15.6748C10.9607 15.5996 10.8879 15.52 10.8216 15.438H11.697C11.7596 15.6089 11.8278 15.7697 11.9047 15.9184C12.0051 16.1137 12.1175 16.2872 12.2423 16.4379C11.784 16.2753 11.3733 16.0128 11.0362 15.6748ZM13.1541 16.6198C13.0997 16.617 13.0459 16.6124 12.9915 16.6078C12.9073 16.5691 12.8221 16.5171 12.7382 16.4484C12.4836 16.2403 12.2478 15.8885 12.0673 15.438H13.1541V16.6198ZM13.1541 15.0908H11.9471C11.8094 14.64 11.7247 14.1163 11.7104 13.5568H13.1541V15.0908ZM13.1541 13.21H11.7108C11.7251 12.65 11.8108 12.1269 11.9485 11.676H13.1542L13.1541 13.21ZM12.7382 10.3179C12.8221 10.2498 12.9073 10.1982 12.9915 10.1596C13.0459 10.1541 13.0997 10.1504 13.1541 10.1471V11.3284H12.0695C12.1137 11.216 12.1617 11.1074 12.2132 11.0079C12.3671 10.7094 12.5481 10.4736 12.7382 10.3179ZM11.0362 11.0921C11.3733 10.7545 11.785 10.4912 12.2427 10.329C12.024 10.5943 11.8403 10.9355 11.697 11.3283H10.8216C10.8879 11.2464 10.9607 11.1671 11.0362 11.0921ZM10.5724 11.676H11.5846C11.4548 12.1379 11.377 12.6578 11.3627 13.21H10.0907C10.1202 12.6482 10.2933 12.1255 10.5724 11.676ZM11.3641 13.5568C11.3783 14.109 11.4534 14.6285 11.5846 15.0908H10.5724C10.2933 14.6413 10.1202 14.1182 10.0907 13.5568H11.3641Z" fill="black"/>
</svg>
