<svg width="20" height="20" viewBox="0 0 20 20" fill="none" xmlns="http://www.w3.org/2000/svg">
<path fill-rule="evenodd" clip-rule="evenodd" d="M9.96942 0C4.46483 0 0 4.46483 0 9.96942C0 14.3731 2.87462 18.104 6.78899 19.4495C7.27829 19.5107 7.46177 19.2049 7.46177 18.9602C7.46177 18.7156 7.46177 18.104 7.46177 17.2477C4.70948 17.8593 4.09786 15.9021 4.09786 15.9021C3.66972 14.7401 2.99694 14.4343 2.99694 14.4343C2.07951 13.8226 3.0581 13.8226 3.0581 13.8226C4.0367 13.8838 4.58716 14.8624 4.58716 14.8624C5.50459 16.3914 6.91131 15.9633 7.46177 15.7187C7.52294 15.0459 7.82875 14.6177 8.07339 14.3731C5.87156 14.1284 3.5474 13.2722 3.5474 9.41896C3.5474 8.31804 3.91437 7.46177 4.58716 6.72783C4.46483 6.48318 4.15902 5.44343 4.70948 4.09786C4.70948 4.09786 5.56575 3.85321 7.46177 5.13761C8.25688 4.89297 9.11315 4.8318 9.96942 4.8318C10.8257 4.8318 11.682 4.95413 12.4771 5.13761C14.3731 3.85321 15.2294 4.09786 15.2294 4.09786C15.7798 5.44343 15.4128 6.48318 15.3517 6.72783C15.9633 7.40061 16.3914 8.31804 16.3914 9.41896C16.3914 13.2722 14.0673 14.0673 11.8654 14.3119C12.2324 14.6177 12.5382 15.2294 12.5382 16.1468C12.5382 17.4924 12.5382 18.5321 12.5382 18.8991C12.5382 19.1437 12.7217 19.4495 13.211 19.3884C17.1865 18.0428 20 14.3119 20 9.90826C19.9388 4.46483 15.474 0 9.96942 0Z" fill="#191717"/>
</svg>
